<svg xmlns="http://www.w3.org/2000/svg" width="55.75" height="55.75" viewBox="0 0 55.75 55.75"><g transform="translate(-4 -4)"><path d="M31.875,4A27.907,27.907,0,0,0,4,31.875V43.424A5.392,5.392,0,0,0,9.575,48.6h2.787a2.788,2.788,0,0,0,2.788-2.787V31.476a2.787,2.787,0,0,0-2.788-2.788H9.831a22.268,22.268,0,0,1,44.087,0H51.388A2.788,2.788,0,0,0,48.6,31.476V48.6a5.581,5.581,0,0,1-5.575,5.575H37.45V51.388H26.3V59.75H43.025A11.161,11.161,0,0,0,54.175,48.6a5.392,5.392,0,0,0,5.575-5.176V31.875A27.907,27.907,0,0,0,31.875,4Z" transform="translate(0 0)" fill="#20a39e"/></g></svg>