<svg xmlns="http://www.w3.org/2000/svg" width="81.431" height="48.859" viewBox="0 0 81.431 48.859"><path d="M44.787,33H42.752V21.8a1.018,1.018,0,0,0-1.018-1.018H40.006a3.049,3.049,0,0,0-1.694.513l-1.951,1.3a1.017,1.017,0,0,0-.282,1.411l1.13,1.694a1.017,1.017,0,0,0,1.411.282l.06-.039V33H36.644a1.018,1.018,0,0,0-1.018,1.018v2.036a1.018,1.018,0,0,0,1.018,1.018h8.143a1.018,1.018,0,0,0,1.018-1.018V34.019A1.018,1.018,0,0,0,44.787,33ZM77.36,4.5H4.072A4.072,4.072,0,0,0,0,8.572V49.287a4.072,4.072,0,0,0,4.072,4.072H77.36a4.072,4.072,0,0,0,4.072-4.072V8.572A4.072,4.072,0,0,0,77.36,4.5ZM6.107,47.252V39.108a8.143,8.143,0,0,1,8.143,8.143Zm0-28.5V10.607h8.143A8.143,8.143,0,0,1,6.107,18.751ZM40.716,43.18C33.97,43.18,28.5,36.8,28.5,28.929S33.97,14.679,40.716,14.679,52.93,21.059,52.93,28.929,47.459,43.18,40.716,43.18Zm34.608,4.072H67.181a8.143,8.143,0,0,1,8.143-8.143Zm0-28.5a8.143,8.143,0,0,1-8.143-8.143h8.143Z" transform="translate(0 -4.5)" fill="#20a39e"/></svg>