<svg xmlns="http://www.w3.org/2000/svg" width="62.5" height="62.5" viewBox="0 0 62.5 62.5"><path d="M.563,31.813a31.25,31.25,0,1,1,31.25,31.25A31.245,31.245,0,0,1,.563,31.813Zm18.095,3.642,9.123-9.514V48.95A3.017,3.017,0,0,0,30.8,51.974h2.016a3.017,3.017,0,0,0,3.024-3.024V25.941l9.123,9.514a3.028,3.028,0,0,0,4.322.05l1.373-1.386a3.012,3.012,0,0,0,0-4.272L33.955,13.126a3.012,3.012,0,0,0-4.272,0L12.949,29.847a3.012,3.012,0,0,0,0,4.272L14.323,35.5A3.042,3.042,0,0,0,18.657,35.454Z" transform="translate(-0.563 -0.563)" fill="#20a39e"/></svg>